<?xml version="1.0" standalone="no"?>
<!DOCTYPE svg PUBLIC "-//W3C//DTD SVG 20010904//EN"
 "http://www.w3.org/TR/2001/REC-SVG-20010904/DTD/svg10.dtd">
<svg version="1.0" xmlns="http://www.w3.org/2000/svg"
 width="512.000000pt" height="512.000000pt" viewBox="0 0 512.000000 512.000000"
 preserveAspectRatio="xMidYMid meet">
<metadata>
Created by potrace 1.14, written by Peter Selinger 2001-2017
</metadata>
<g transform="translate(0.000000,512.000000) scale(0.100000,-0.100000)"
fill="#000000" stroke="none">
<path d="M1448 5115 c-2 -2 -30 -5 -63 -8 -33 -3 -67 -8 -75 -11 -8 -3 -27 -7
-41 -10 -14 -2 -57 -16 -95 -32 -317 -126 -591 -452 -692 -824 -91 -334 -45
-656 128 -885 67 -90 152 -158 265 -210 103 -48 231 -111 355 -175 47 -24 90
-45 95 -46 6 -1 35 -9 65 -18 63 -20 125 -29 190 -29 51 0 149 11 160 18 7 4
47 -12 165 -65 11 -5 40 -18 65 -29 76 -33 412 -181 465 -206 28 -12 60 -25
73 -29 20 -7 32 -26 15 -26 -16 0 -60 -46 -76 -78 -12 -26 -16 -64 -16 -179 0
-149 6 -179 44 -217 20 -20 26 -9 -140 -281 -70 -115 -135 -222 -144 -237 -9
-15 -46 -75 -82 -135 -273 -448 -282 -464 -281 -499 1 -19 6 -43 12 -54 8 -16
5 -28 -17 -62 -15 -24 -28 -45 -28 -48 0 -3 -12 -23 -26 -45 -34 -52 -187
-305 -218 -358 -13 -23 -37 -62 -53 -86 -46 -70 -38 -135 22 -166 35 -18 82
-11 108 19 16 17 145 226 241 388 95 162 147 241 160 245 57 16 84 41 127 112
138 232 294 488 303 498 6 7 11 14 11 16 0 2 24 44 54 93 30 49 82 135 116
191 33 56 64 104 68 107 4 2 7 -179 7 -402 -1 -228 3 -420 8 -437 6 -16 18
-39 28 -50 16 -18 17 -46 17 -321 0 -266 1 -304 16 -327 19 -28 67 -49 94 -41
66 22 80 48 81 154 1 161 1 197 -3 223 -2 15 1 27 6 27 5 0 7 4 3 9 -3 6 -6
62 -6 126 0 111 1 118 25 141 13 14 29 37 34 52 5 15 8 208 8 429 -1 220 2
399 6 397 4 -3 23 -36 42 -73 19 -37 52 -101 74 -142 22 -41 63 -119 92 -174
29 -55 65 -122 80 -150 15 -27 58 -108 95 -180 150 -288 158 -300 206 -310 23
-5 36 -22 75 -98 25 -51 50 -96 54 -102 7 -9 59 -108 187 -355 56 -106 80
-135 119 -143 56 -10 120 52 110 108 -3 14 -25 62 -49 107 -24 46 -68 128 -97
183 -29 55 -76 145 -105 200 -29 55 -62 117 -73 138 -18 34 -19 41 -6 65 8 15
14 39 14 53 0 24 -51 131 -150 314 -52 97 -108 202 -172 325 -31 58 -78 148
-106 200 -27 52 -68 129 -89 170 -22 41 -48 90 -59 108 l-19 34 35 37 c34 36
65 105 54 123 -8 13 12 9 67 -13 29 -11 80 -23 113 -26 33 -3 85 -17 116 -30
30 -14 69 -31 85 -38 17 -7 46 -20 65 -28 79 -35 199 -42 277 -17 41 14 135
59 143 69 3 3 15 14 26 24 21 18 24 17 120 -23 84 -36 105 -41 143 -36 53 7
117 46 133 81 6 14 14 25 18 25 10 0 32 79 35 127 4 65 -34 134 -101 184 -33
24 -60 47 -62 52 -2 4 -9 7 -16 7 -28 0 -44 36 -49 115 -3 48 -15 107 -29 144
l-24 64 51 51 c41 41 55 63 66 106 16 67 16 92 1 152 -14 54 -50 95 -167 189
-44 35 -87 69 -95 76 -8 7 -58 46 -110 88 -52 42 -104 84 -115 93 -11 10 -38
31 -60 47 -22 16 -42 32 -45 35 -12 14 -250 199 -292 228 -141 97 -331 64
-399 -69 -11 -22 -24 -39 -29 -39 -5 0 -159 108 -342 241 -294 212 -334 245
-346 277 -6 20 -17 48 -23 62 -7 14 -16 36 -22 50 -23 53 -98 159 -144 201
-26 25 -131 100 -233 168 -102 68 -196 133 -210 146 -81 71 -225 136 -330 150
-77 10 -109 12 -112 10z"/>
</g>
</svg>
